/* XPM */
static const char * arrow_right_xpm[] = {
"22 22 124 2",
"  	c None",
". 	c #0B550B",
"+ 	c #1E611E",
"@ 	c #1C601C",
"# 	c #86B986",
"$ 	c #165E16",
"% 	c #1A601A",
"& 	c #87C587",
"* 	c #80BC80",
"= 	c #286B28",
"- 	c #186518",
"; 	c #75B875",
"> 	c #79BC79",
", 	c #7BBB7B",
"' 	c #387B38",
") 	c #004D00",
"! 	c #176C17",
"~ 	c #63AE63",
"{ 	c #67B167",
"] 	c #6AB36A",
"^ 	c #6EB46E",
"/ 	c #468B46",
"( 	c #025102",
"_ 	c #177417",
": 	c #51A751",
"< 	c #54A954",
"[ 	c #58AB58",
"} 	c #5BAB5B",
"| 	c #5EAB5E",
"1 	c #4D964D",
"2 	c #0C5B0C",
"3 	c #177C17",
"4 	c #3FA33F",
"5 	c #42A542",
"6 	c #46A546",
"7 	c #49A449",
"8 	c #4CA34C",
"9 	c #4FA04F",
"0 	c #4A964A",
"a 	c #156616",
"b 	c #188418",
"c 	c #2DA22D",
"d 	c #30A330",
"e 	c #34A234",
"f 	c #37A037",
"g 	c #3A9C3A",
"h 	c #3D983D",
"i 	c #419441",
"j 	c #448D44",
"k 	c #207121",
"l 	c #005802",
"m 	c #178918",
"n 	c #23A723",
"o 	c #26A726",
"p 	c #28A428",
"q 	c #2BA12B",
"r 	c #2B9B2B",
"s 	c #2C922C",
"t 	c #2F8C2F",
"u 	c #338433",
"v 	c #377E37",
"w 	c #277027",
"x 	c #036004",
"y 	c #09870B",
"z 	c #00A400",
"A 	c #00A200",
"B 	c #009C00",
"C 	c #009300",
"D 	c #028902",
"E 	c #067F06",
"F 	c #057105",
"G 	c #026102",
"H 	c #015101",
"I 	c #0C5E0D",
"J 	c #036304",
"K 	c #0C8D0E",
"L 	c #00B300",
"M 	c #00B100",
"N 	c #00A900",
"O 	c #009E00",
"P 	c #009100",
"Q 	c #008300",
"R 	c #007400",
"S 	c #056905",
"T 	c #0E7210",
"U 	c #006602",
"V 	c #0E9311",
"W 	c #00C300",
"X 	c #00BF00",
"Y 	c #00B400",
"Z 	c #00A600",
"` 	c #009700",
" .	c #008800",
"..	c #0A7F0A",
"+.	c #0D7C0F",
"@.	c #119914",
"#.	c #00D200",
"$.	c #00CA00",
"%.	c #00BB00",
"&.	c #00AB00",
"*.	c #009A00",
"=.	c #119112",
"-.	c #0A7F0D",
";.	c #139B16",
">.	c #00D600",
",.	c #00BA00",
"'.	c #01A901",
").	c #008E02",
"!.	c #06800A",
"~.	c #169C19",
"{.	c #00C200",
"].	c #00BD00",
"^.	c #08B308",
"/.	c #1A9C1D",
"(.	c #007D03",
"_.	c #189C1B",
":.	c #00AE00",
"<.	c #11AE11",
"[.	c #159719",
"}.	c #1B9C1F",
"|.	c #1DA41E",
"1.	c #0F9214",
"2.	c #0E9512",
"3.	c #189616",
"                                            ",
"                                            ",
"            . +                             ",
"            @ # $                           ",
"            % & * =                         ",
"            - ; > , ' )                     ",
"            ! ~ { ] ^ / (                   ",
"            _ : < [ } | 1 2                 ",
"            3 4 5 6 7 8 9 0 a               ",
"            b c d e f g h i j k l           ",
"            m n o p q r s t u v w x         ",
"            y z A B C D E F G H I J         ",
"            K L M N O P Q R S T U           ",
"            V W X Y Z `  ...+.              ",
"            @.#.$.%.&.*.=.-.                ",
"            ;.>.$.,.'.).!.                  ",
"            ~.{.].^./.(.                    ",
"            _.:.<.[.                        ",
"            }.|.1.                          ",
"            2.3.                            ",
"                                            ",
"                                            "};
